<svg width="156" height="21" viewBox="0 0 156 21" fill="none" xmlns="http://www.w3.org/2000/svg">
<g clip-path="url(#clip0_309_3755)">
<path d="M1.47114 20.6593L2.97661 19.0735H9.19385C10.326 19.1063 11.426 18.7052 12.2565 17.9568C12.6607 17.6072 12.982 17.1765 13.1982 16.6945C13.4145 16.2125 13.5206 15.6907 13.5092 15.165C13.5172 14.6398 13.4096 14.119 13.1935 13.6375C12.9775 13.156 12.658 12.7249 12.2565 12.3732C11.426 11.6248 10.326 11.2237 9.19385 11.2565H6.06225C5.26668 11.2623 4.47713 11.1221 3.73509 10.8433C3.00553 10.5763 2.3362 10.1743 1.76419 9.65954C1.20492 9.1641 0.760325 8.55888 0.45983 7.88394C0.155719 7.2225 -0.00146484 6.50617 -0.00146484 5.78171C-0.00146484 5.05725 0.155719 4.34093 0.45983 3.67948C0.765617 3.00746 1.20948 2.40324 1.76419 1.90389C2.33757 1.38403 3.00869 0.976432 3.74084 0.703408C4.47286 0.423316 5.25253 0.279367 6.03926 0.279053H13.0839L11.6359 1.8648H6.06225C5.49677 1.85993 4.9354 1.95842 4.40738 2.15515C3.88512 2.3425 3.40654 2.62912 2.99959 2.99828C2.60643 3.35604 2.29301 3.78841 2.07875 4.26862C1.86448 4.74884 1.75393 5.26668 1.75393 5.79009C1.75393 6.3135 1.86448 6.83133 2.07875 7.31155C2.29301 7.79176 2.60643 8.22413 2.99959 8.5819C3.40654 8.95105 3.88512 9.23768 4.40738 9.42502C4.9354 9.62175 5.49677 9.72025 6.06225 9.71537H9.19385C9.99053 9.71489 10.7801 9.86077 11.521 10.1453C12.2507 10.4197 12.9197 10.8272 13.4919 11.3458C14.0461 11.8469 14.4915 12.4506 14.802 13.1214C15.1011 13.7812 15.2557 14.4942 15.256 15.2152C15.2445 15.9374 15.0823 16.6497 14.779 17.3091C14.4708 17.9844 14.0252 18.5922 13.4689 19.0959C12.8925 19.6035 12.2216 19.9996 11.4923 20.2628C10.7465 20.5358 9.95626 20.6757 9.15938 20.676L1.47114 20.6593Z" fill="white"/>
<path d="M20.979 0.279053H19.3472V20.676H20.979V0.279053Z" fill="white"/>
<path d="M35.8958 20.9999C34.4749 21.0017 33.0681 20.7264 31.7586 20.1903C30.4473 19.6575 29.2564 18.8797 28.2535 17.901C26.7439 16.4308 25.7161 14.5591 25.2999 12.522C24.8837 10.4849 25.0977 8.37363 25.9149 6.45456C26.4508 5.19574 27.2445 4.05594 28.2478 3.10439C29.2435 2.10918 30.4383 1.32251 31.7586 0.792772C34.4082 -0.260677 37.3776 -0.260677 40.0272 0.792772C41.1553 1.24837 42.1935 1.89071 43.0956 2.6912L41.9464 3.80793C41.1844 3.15758 40.3164 2.6349 39.3779 2.26126C38.2583 1.81523 37.0599 1.58574 35.8498 1.58565C34.0365 1.58187 32.2629 2.10153 30.754 3.07872C29.245 4.05591 28.0688 5.44658 27.3744 7.07435C26.4551 9.27648 26.4551 11.7401 27.3744 13.9422C27.8295 15.0183 28.5083 15.9916 29.3683 16.801C30.9499 18.345 33.0594 19.2716 35.2971 19.4054C37.5348 19.5391 39.7452 18.8708 41.5097 17.5269L41.7281 17.365V9.6819H43.337V18.0573C42.3682 18.9598 41.2364 19.681 39.9985 20.1847C38.6995 20.7161 37.3053 20.9931 35.8958 20.9999Z" fill="white"/>
<path d="M66.8615 20.676V2.43991L57.9723 12.3006L49.1119 2.43433V18.2695L47.48 19.8776V0.279053H49.3187L57.9723 9.91638L66.6546 0.279053H68.4704V20.676H66.8615Z" fill="white"/>
<path d="M97.6833 20.6593V0.279073H104.492C105.875 0.276363 107.245 0.541063 108.521 1.05776C109.798 1.57445 110.956 2.3328 111.928 3.28865C112.912 4.22921 113.694 5.35106 114.226 6.58857C115.278 9.09412 115.278 11.9001 114.226 14.4056C113.694 15.6431 112.912 16.765 111.928 17.7056C110.945 18.6438 109.786 19.3905 108.515 19.9055C107.241 20.4254 105.874 20.6913 104.492 20.6872L97.6833 20.6593ZM99.321 19.0735H104.492C105.656 19.078 106.809 18.8577 107.884 18.4254C108.959 17.9931 109.935 17.3574 110.756 16.5553C111.574 15.7529 112.225 14.8051 112.675 13.7635C113.134 12.7246 113.371 11.6056 113.37 10.4748C113.371 9.34025 113.14 8.21684 112.692 7.16926C111.77 5.06355 110.044 3.38667 107.877 2.49019C106.8 2.0558 105.646 1.83191 104.481 1.83132H99.3095L99.321 19.0735Z" fill="white"/>
<path d="M153.96 20.676L146.99 11.7869L140.055 20.676H138.015L145.985 10.5082L138.015 0.279053H140.055L146.99 9.16818L153.96 0.279053H156L148.03 10.5082L156 20.676H153.96Z" fill="white"/>
<path d="M134.32 5.14239L135.176 0.279053H120.955L120.61 2.18307L128.31 10.6088L117.599 18.7776L117.254 20.676H131.47L132.464 15.3883L128.752 19.0903H119.191L130.355 10.6088C127.643 7.6941 124.935 4.77759 122.23 1.85922H132.734L134.32 5.14239Z" fill="#51EDFF"/>
<path d="M91.3626 4.46671V18.9841H77.0951L84.3294 11.6137L91.3626 4.46671ZM93.0864 0.284573L73.0671 20.6592H93.0864V0.267822V0.284573Z" fill="white"/>
</g>
<defs>
<clipPath id="clip0_309_3755">
<rect width="156" height="21" fill="white"/>
</clipPath>
</defs>
</svg>
