<svg xmlns="http://www.w3.org/2000/svg" viewBox="0 0 27.85 23.03"><defs><style>.cls-1{fill:#37aee2;}</style></defs><g id="Layer_2" data-name="Layer 2"><g id="Design"><path class="cls-1" d="M1.71,10,18.3,3.19c1.63-.71,7.19-3,7.19-3s2.56-1,2.35,1.43c-.08,1-.64,4.48-1.21,8.26L24.85,21.06S24.7,22.7,23.49,23s-3.2-1-3.56-1.29-5.34-3.41-7.19-5a1.35,1.35,0,0,1,.07-2.28c2.57-2.35,5.63-5.27,7.48-7.12.85-.85,1.71-2.85-1.85-.42l-10,6.76a4.2,4.2,0,0,1-3.28.07C3,13.09.5,12.24.5,12.24S-1.21,11.17,1.71,10Z"/></g></g></svg>